<svg width="336" height="40" viewBox="0 0 336 40" fill="none" xmlns="http://www.w3.org/2000/svg">
<path d="M171.824 23.1728C171.824 25.2831 170.986 27.3069 169.494 28.7991C168.001 30.2913 165.978 31.1296 163.867 31.1296C161.757 31.1296 159.733 30.2913 158.241 28.7991C156.749 27.3069 155.911 25.2831 155.911 23.1728V2.0112H149.118V23.1728C149.118 27.1015 150.678 30.8693 153.456 33.6473C156.234 36.4253 160.002 37.986 163.931 37.986C167.86 37.986 171.627 36.4253 174.405 33.6473C177.183 30.8693 178.744 27.1015 178.744 23.1728V2.0112H171.824V23.1728ZM18.4022 8.88873C21.2292 8.88411 23.9496 9.96772 25.9992 11.9148L30.0411 6.24353C27.422 4.04277 24.2289 2.63553 20.8374 2.18727C17.4459 1.739 13.9969 2.26835 10.896 3.71307C7.79498 5.1578 5.17093 7.45783 3.33234 10.3428C1.49374 13.2277 0.517029 16.5776 0.517029 19.9986C0.517029 23.4196 1.49374 26.7695 3.33234 29.6544C5.17093 32.5394 7.79498 34.8394 10.896 36.2841C13.9969 37.7288 17.4459 38.2582 20.8374 37.8099C24.2289 37.3617 27.422 35.9544 30.0411 33.7537L26.0839 28.0612C24.0165 30.0364 21.2614 31.1293 18.4022 31.1085C15.4557 31.1085 12.6298 29.938 10.5463 27.8545C8.46284 25.771 7.29234 22.9451 7.29234 19.9986C7.29234 17.0521 8.46284 14.2262 10.5463 12.1427C12.6298 10.0592 15.4557 8.88873 18.4022 8.88873ZM95.8538 26.1778L79.115 2.0112H72.2586V37.986H79.115V13.7982L95.8538 37.986H102.731V2.0112H95.8538V26.1778ZM111.873 2.0112V8.88873H122.475V37.986H129.353V8.88873H139.955V2.0112H111.873ZM301.291 2.0112V8.88873H305.016V37.986H311.893V2.0112H301.291ZM39.1195 2.0112V37.986H63.0956V31.1085H45.9758V23.4268H59.7097V16.5704H45.9758V8.88873H63.0956V2.0112H39.1195ZM215.523 14.0945C215.523 12.5077 215.21 10.9364 214.603 9.47042C213.996 8.00441 213.106 6.67235 211.984 5.55032C210.862 4.42828 209.53 3.53823 208.064 2.93099C206.598 2.32374 205.026 2.0112 203.44 2.0112L187.907 2.0112V37.986H194.784V26.1566H199.165L207.355 37.986H215.523L207.058 25.6488C209.515 24.8742 211.661 23.336 213.183 21.258C214.705 19.18 215.525 16.6705 215.523 14.0945ZM203.44 19.3003H194.784V8.88873H203.44C204.123 8.88873 204.8 9.02338 205.432 9.285C206.063 9.54661 206.637 9.93007 207.121 10.4135C207.604 10.8969 207.988 11.4707 208.249 12.1023C208.511 12.7339 208.645 13.4109 208.645 14.0945C208.645 14.7781 208.511 15.4551 208.249 16.0867C207.988 16.7182 207.604 17.2921 207.121 17.7755C206.637 18.2589 206.063 18.6424 205.432 18.904C204.8 19.1656 204.123 19.3003 203.44 19.3003ZM246.969 2.0112L236.896 16.5492L226.823 2.0112H218.676L233.468 23.3845V37.986H240.346V23.3845L255.138 2.0112H246.969ZM291.557 19.9774L291.747 19.7235C292.735 18.2497 293.365 16.565 293.585 14.8043C293.805 13.0435 293.61 11.2557 293.015 9.58395C292.42 7.91222 291.442 6.40305 290.159 5.17733C288.876 3.95161 287.323 3.0434 285.626 2.52544C283.929 2.00748 282.134 1.89417 280.385 2.19458C278.636 2.49499 276.982 3.20078 275.555 4.2554C274.128 5.31003 272.968 6.68419 272.167 8.26782C271.367 9.85146 270.948 11.6005 270.945 13.375V13.7982H277.823V13.375C277.828 12.1832 278.306 11.0422 279.15 10.2014C279.995 9.3607 281.138 8.88872 282.33 8.88873C282.926 8.86822 283.519 8.97007 284.074 9.18798C284.629 9.4059 285.133 9.73526 285.556 10.1557C285.978 10.5762 286.31 11.0788 286.53 11.6325C286.751 12.1862 286.855 12.7793 286.838 13.375C286.6 14.6185 286.094 15.7954 285.356 16.8243L270.755 37.986H294.35V31.1085H283.769L291.557 19.9774ZM319.956 37.3088C319.671 37.1167 319.438 36.8584 319.276 36.5561C319.114 36.2538 319.027 35.9166 319.025 35.5736V35.235C319.025 35.235 319.025 35.108 319.194 35.108H320.379C320.485 35.108 320.548 35.108 320.548 35.235V35.5101C320.543 35.7074 320.589 35.9028 320.682 36.0771C320.774 36.2514 320.911 36.3987 321.077 36.5047C321.486 36.8043 321.99 36.9469 322.495 36.9067C322.953 36.9298 323.406 36.8036 323.786 36.547C323.937 36.448 324.06 36.3129 324.145 36.154C324.23 35.995 324.274 35.8173 324.273 35.637C324.276 35.5163 324.255 35.3961 324.212 35.2835C324.168 35.1709 324.102 35.0681 324.019 34.981C323.825 34.7579 323.587 34.5777 323.32 34.452C323.024 34.2827 322.58 34.0922 321.987 33.8383C321.395 33.5844 320.823 33.3304 320.421 33.1188C320.054 32.9154 319.731 32.6422 319.469 32.3147C319.21 31.9832 319.075 31.5714 319.088 31.1508C319.085 30.8282 319.162 30.51 319.314 30.2253C319.465 29.9406 319.686 29.6985 319.956 29.5213C320.652 29.0876 321.463 28.8737 322.283 28.9076C322.896 28.8971 323.505 28.9975 324.082 29.2039C324.559 29.3709 324.978 29.6722 325.288 30.0715C325.563 30.4378 325.712 30.8834 325.712 31.3412V31.6375C325.712 31.6375 325.712 31.7645 325.542 31.7645H324.357C324.23 31.7645 324.188 31.7645 324.188 31.6375V31.3624C324.188 31.1653 324.142 30.9709 324.054 30.7946C323.966 30.6183 323.838 30.4649 323.68 30.3466C323.259 30.0741 322.763 29.9409 322.262 29.9657C321.83 29.9436 321.402 30.0544 321.035 30.2832C320.892 30.3823 320.777 30.5156 320.699 30.6708C320.622 30.8261 320.584 30.9984 320.59 31.1719C320.587 31.4115 320.669 31.6445 320.823 31.828C321.008 32.0313 321.231 32.1966 321.479 32.3147C321.776 32.484 322.22 32.6744 322.812 32.9284C323.383 33.1683 323.941 33.4367 324.484 33.7325C324.854 33.9228 325.178 34.1897 325.436 34.5155C325.68 34.8295 325.808 35.2185 325.796 35.6159C325.796 35.9571 325.713 36.293 325.554 36.5952C325.396 36.8973 325.167 37.1567 324.886 37.3511C324.155 37.8161 323.298 38.0451 322.432 38.0072C321.555 38.0274 320.692 37.7842 319.956 37.3088ZM327.68 37.732V29.0981C327.68 29.0981 327.68 28.9711 327.849 28.9711H329.076C329.106 28.9562 329.138 28.9485 329.172 28.9485C329.205 28.9485 329.237 28.9562 329.267 28.9711L331.383 32.5051L333.499 28.9711C333.532 28.9544 333.568 28.9457 333.605 28.9457C333.642 28.9457 333.678 28.9544 333.711 28.9711H334.917C334.917 28.9711 335.086 28.9711 335.086 29.0981V37.732C335.086 37.732 335.086 37.859 334.917 37.859H333.711C333.584 37.859 333.541 37.859 333.541 37.732V31.6375L331.827 34.3674H330.896L329.161 31.6163V37.7109C329.161 37.7109 329.161 37.8379 329.013 37.8379H327.785C327.785 37.8379 327.68 37.8167 327.68 37.732Z" fill="#656C85"/>
</svg>
