<svg width="246" height="40" viewBox="0 0 246 40" fill="none" xmlns="http://www.w3.org/2000/svg">
<path d="M8.44469 0.00266857C17.4287 0.0385962 26.4056 -0.0404439 35.3824 0.0314113C39.4249 0.00985476 43.0501 3.62417 42.9998 7.66244C43.0645 13.2312 43.0645 18.8 42.9926 24.3688C43.0429 28.019 40.1082 31.0082 36.7131 31.9064C36.6987 30.8214 36.6915 29.7364 36.6843 28.6514C38.1013 27.7316 39.727 26.546 39.6047 24.649C39.6478 18.8791 39.655 13.1019 39.6047 7.33909C39.6622 5.16906 37.5906 3.27927 35.4471 3.39424C27.5708 3.34394 19.6873 3.39424 11.8038 3.37987C11.8326 11.7726 11.8398 20.1724 11.8038 28.5723C16.8461 28.5867 21.8884 28.5795 26.9306 28.5795C26.9306 29.7076 26.9235 30.8358 26.9235 31.9639C20.7663 31.9567 14.6091 31.9495 8.44469 31.9639C8.45188 25.073 8.45188 18.1892 8.44469 11.2983C6.09259 11.169 3.48873 12.7139 3.44557 15.2719C3.34487 21.0419 3.38083 26.8119 3.42399 32.5819C3.33048 34.7231 5.25101 36.6776 7.40171 36.5986C15.3715 36.6704 23.3413 36.577 31.3112 36.6417C31.2896 32.7687 31.3256 28.8885 31.2824 25.0155C32.3685 25.0155 33.4619 25.0227 34.5552 25.0299C34.5049 30.0166 34.512 35.0034 34.548 39.9973C25.7078 39.9901 16.8605 40.0117 8.0203 39.9901C3.90592 40.1698 0.0936407 36.6776 0.0360969 32.5387C0.00732499 26.7328 -0.0430257 20.9269 0.0720619 15.121C0.30943 10.8744 4.38066 7.86364 8.46627 7.92831C8.44469 5.28403 8.45188 2.63976 8.44469 0.00266857Z" fill="#656C85"/>
<path d="M15.4579 8.02173C21.8093 8.02173 28.1607 8.0361 34.5049 8.02173C34.5552 12.2253 34.4905 16.4288 34.5552 20.6323C33.4619 20.6395 32.3758 20.6467 31.2824 20.6539C31.3112 17.5785 31.2968 14.5031 31.3112 11.4277C26.01 11.4205 20.716 11.4564 15.4147 11.4133C15.4219 10.278 15.4363 9.14986 15.4579 8.02173Z" fill="#656C85"/>
<path d="M61.2124 12.3259C65.7152 8.12952 73.4764 8.49598 77.6915 12.9582C76.7061 13.8708 75.7134 14.7833 74.7208 15.6959C72.3112 13.3175 68.3622 12.5774 65.4491 14.4887C61.5289 17.018 61.6584 23.6934 65.7655 25.9856C68.6787 27.7388 72.4263 26.855 74.7208 24.4981C75.7062 25.4395 76.6917 26.3879 77.6771 27.3364C73.275 32.0142 65.0391 32.1004 60.6226 27.4227C56.6952 23.3413 56.9326 16.0767 61.2124 12.3259Z" fill="#656C85"/>
<path d="M81.0146 9.73187C82.6187 9.74624 84.2155 9.76061 85.8124 9.7678C85.8124 15.4013 85.8196 21.0419 85.8052 26.6753C89.2794 26.6682 92.7608 26.6682 96.235 26.6682C96.235 27.9616 96.2422 29.255 96.2422 30.5412C91.1711 30.534 86.0929 30.5268 81.0218 30.5483C81.0218 23.6071 81.029 16.6659 81.0146 9.73187Z" fill="#656C85"/>
<path d="M99.0546 9.73907C104.291 9.76063 109.528 9.76063 114.764 9.73907C114.764 11.0037 114.771 12.2756 114.771 13.5474C111.103 13.533 107.434 13.533 103.766 13.5474C103.78 15.0636 103.795 16.5869 103.802 18.103C107.032 18.1102 110.261 18.0455 113.491 18.1533C113.477 19.3892 113.469 20.6251 113.448 21.8682C110.233 21.8611 107.01 21.8611 103.795 21.8611C103.795 23.4706 103.795 25.0874 103.795 26.6969C107.542 26.6969 111.297 26.6969 115.052 26.6897C115.066 27.9759 115.081 29.2622 115.095 30.5484C109.751 30.534 104.406 30.534 99.0618 30.5412C99.0546 23.6071 99.0546 16.6731 99.0546 9.73907Z" fill="#656C85"/>
<path d="M125.676 9.73907C127.23 9.74626 128.783 9.75345 130.344 9.76063C133.444 16.6875 136.516 23.6287 139.659 30.5412C137.997 30.534 136.343 30.534 134.696 30.534C133.998 29.0538 133.689 27.2789 132.56 26.0646C129.409 25.8706 126.244 26.0718 123.094 25.9927C122.453 27.5089 121.835 29.0322 121.202 30.5412C119.591 30.5412 117.979 30.5412 116.368 30.5484C119.54 23.6431 122.568 16.6731 125.676 9.73907ZM124.575 22.5581C126.855 22.5509 129.128 22.5509 131.409 22.5581C130.279 19.8347 129.143 17.1114 128.042 14.3737C126.762 17.0468 125.654 19.7988 124.575 22.5581Z" fill="#656C85"/>
<path d="M142.011 9.7391C146.233 9.96904 150.564 9.23612 154.707 10.2708C158.382 11.205 160.778 15.2217 159.821 18.9078C159.49 21.2359 157.584 22.7808 155.721 23.9593C157.253 26.1724 158.785 28.3855 160.375 30.5556C158.692 30.5484 157.016 30.5412 155.332 30.5484C153.966 28.6155 152.614 26.6754 151.276 24.7281C149.758 24.7353 148.24 24.7425 146.723 24.7497C146.723 26.6754 146.73 28.6083 146.737 30.5412C145.162 30.534 143.586 30.5412 142.011 30.5412C142.033 23.6072 142.033 16.6731 142.011 9.7391ZM146.73 13.5762C146.73 16.0264 146.73 18.4839 146.73 20.9342C148.83 20.8839 150.995 21.1497 153.045 20.5964C155.858 19.6479 155.958 15.0133 153.146 13.9929C151.089 13.2959 148.859 13.6337 146.73 13.5762Z" fill="#656C85"/>
<path d="M164.604 9.73187C169.891 10.1199 175.868 8.56782 180.501 11.8803C186.003 15.6456 185.881 24.9221 180.285 28.5508C175.66 31.6693 169.812 30.2034 164.597 30.5412C164.597 23.6071 164.59 16.6659 164.604 9.73187ZM167.481 12.254C167.481 17.5066 167.489 22.7664 167.474 28.019C171.107 27.825 175.128 28.716 178.379 26.6466C182.759 23.9161 182.831 16.63 178.551 13.7701C175.336 11.4708 171.157 12.448 167.481 12.254Z" fill="#656C85"/>
<path d="M189.233 9.76063C194.131 9.73908 199.023 9.76782 203.914 9.73907C203.907 10.5798 203.907 11.4205 203.914 12.2612C199.965 12.2468 196.023 12.2684 192.081 12.2396C192.096 14.4025 192.096 16.5581 192.096 18.721C195.599 18.7497 199.102 18.7354 202.605 18.7425C202.612 19.5617 202.626 20.3808 202.641 21.2C199.123 21.1928 195.606 21.1856 192.096 21.2C192.096 23.4706 192.096 25.7341 192.089 27.9975C196.167 28.0191 200.245 27.9975 204.324 28.0119C204.31 28.6442 204.288 29.9089 204.274 30.5412C199.26 30.534 194.247 30.5412 189.24 30.534C189.24 23.6143 189.24 16.6875 189.233 9.76063Z" fill="#656C85"/>
<path d="M210.625 10.7163C214.279 8.74749 218.818 9.3367 222.407 11.1906C222.141 11.9666 221.875 12.7426 221.609 13.5115C218.825 12.1678 215.451 11.2624 212.488 12.563C210.618 13.2744 209.963 16.1055 211.646 17.3629C214.804 19.3533 219.098 18.8288 221.954 21.4228C224.522 23.7724 223.335 28.3352 220.299 29.7005C216.156 31.7124 211.078 30.7927 207.345 28.2921C207.604 27.7388 208.129 26.6394 208.388 26.0862C211.409 28.1053 215.415 29.1831 218.882 27.6742C220.623 26.9053 221.22 24.297 219.609 23.0754C216.422 20.8623 211.711 21.6599 208.999 18.5917C206.863 16.2204 207.884 12.1606 210.625 10.7163Z" fill="#656C85"/>
<path d="M227.809 9.74626C228.773 9.73908 229.744 9.73907 230.722 9.73907C230.715 13.6336 230.708 17.5282 230.722 21.4227C234.563 17.5641 238.339 13.648 242.152 9.76063C243.216 9.74626 244.288 9.73907 245.36 9.73907C242.346 12.8001 239.483 16.0049 236.484 19.0731C239.634 22.9173 242.756 26.7831 246 30.5484C244.871 30.5484 243.741 30.5412 242.619 30.534C239.944 27.4083 237.232 24.3185 234.578 21.1712C233.276 22.479 231.988 23.794 230.708 25.1161C230.715 26.9269 230.715 28.7304 230.722 30.5412C229.996 30.5412 228.535 30.5412 227.809 30.5412C227.816 23.6071 227.823 16.6803 227.809 9.74626Z" fill="#656C85"/>
</svg>
