<svg width="255" height="40" viewBox="0 0 255 40" fill="none" xmlns="http://www.w3.org/2000/svg">
<path d="M98.5127 21.9178L95.1076 21.6047C92.8767 21.409 91.9765 20.6262 91.9765 19.2564C91.9765 17.6517 93.3464 16.5949 96.0078 16.5949C98.5127 16.5949 99.7652 17.6908 99.9609 19.4521H107.906C107.397 14.2857 103.718 10.6067 96.2427 10.6067C88.454 10.6067 84.1487 14.5988 84.1487 19.8434C84.1487 24.775 86.8493 27.4364 93.5029 27.9843L96.8689 28.2583C99.4912 28.454 100.431 29.3542 100.431 30.9198C100.431 32.5636 99.0607 33.7769 96.2427 33.7769C93.6203 33.7769 92.0548 32.6027 91.7808 30.5284H83.4051C84.1487 36.1644 88.1409 39.9217 96.2035 39.9217C104.031 39.9217 108.376 35.8904 108.376 30.4892C108.376 25.2446 105.479 22.544 98.5127 21.9178ZM71.0372 10.6067C66.0274 10.6067 63.092 13.229 61.683 18.5519H61.1742V11.0763H53.3072V39.452H61.683V22.9354C61.683 19.1389 63.6399 17.1037 67.1233 17.1037C70.6066 17.1037 72.3288 19.2564 72.3288 22.8963V39.452H80.7045V21.409C80.7045 14.5597 77.1429 10.6067 71.0372 10.6067ZM45.1663 0C42.3092 0 40.1566 1.87867 40.1566 4.73581C40.1566 7.59296 42.2701 9.47163 45.1272 9.47163C47.9843 9.47163 50.0978 7.59296 50.0978 4.73581C50.0587 1.91781 47.9843 0 45.1663 0ZM49.3151 11.0763H40.9393V39.452H49.3151V11.0763ZM121.566 5.08806H116.243C116.086 9.66732 114.129 11.6243 109.785 11.9765V17.7299H113.229V30.2153C113.229 36.4775 116.83 39.9217 123.953 39.9217C125.284 39.9217 126.614 39.7652 127.945 39.4129V32.681C127.28 32.7984 126.614 32.8376 125.91 32.8376C122.896 32.8376 121.605 31.7025 121.605 28.5323V17.7299H128.963V11.0763H121.605C121.566 11.0763 121.566 5.08806 121.566 5.08806ZM254.521 17.7691V11.1155H247.162V5.1272H241.879C241.761 8.29746 240.822 10.137 238.748 11.1155V30.2544C238.748 36.5166 242.348 39.9609 249.472 39.9609C250.802 39.9609 252.133 39.8043 253.464 39.452V32.681C252.798 32.7984 252.133 32.8376 251.429 32.8376C248.415 32.8376 247.123 31.7025 247.123 28.5323V17.7299H254.521V17.7691ZM227.084 18.9824H226.575V11.0763H218.826V39.452H227.202V24.0704C227.202 19.8043 229.119 18.0431 233.464 18.0431C234.207 18.0431 235.029 18.1213 236.164 18.317V10.998C235.382 10.7241 234.599 10.6067 233.777 10.6067C230.372 10.6067 228.023 12.5636 227.084 18.9824ZM173.542 32.7593C169.589 32.7593 166.771 30.137 166.771 25.0881C166.771 20.5479 169.432 17.7691 173.464 17.7691C176.947 17.7691 178.904 19.726 179.491 22.8571H187.984C187.162 15.5773 181.957 10.6458 173.542 10.6458C164.344 10.6458 158.278 16.8689 158.278 25.4403C158.278 34.2857 164.07 40 173.425 40C181.879 40 187.397 35.2642 188.18 27.6321H179.687C179.217 30.6849 177.065 32.7593 173.542 32.7593ZM143.483 10.6067C136.204 10.6067 131.781 14.2074 130.998 20.6262H139.022C139.295 18.3953 140.744 17.2211 143.288 17.2211C145.871 17.2211 147.045 18.3953 147.045 20.0783C147.045 21.4873 146.145 22.2309 143.836 22.6614L140 23.366C133.268 24.6184 130.685 27.3973 130.685 31.7808C130.685 36.8297 134.247 39.9609 139.139 39.9609C143.17 39.9609 145.753 38.0822 146.967 33.4247H147.476V39.452H155.382V20.9393C155.382 14.5205 151.546 10.6067 143.483 10.6067ZM142.544 34.2466C140.274 34.2466 138.982 33.0333 138.982 31.2329C138.982 29.7456 139.883 28.728 142.113 28.2192L143.679 27.8669C145.01 27.5538 146.067 27.1233 147.045 26.3014V29.3151C147.006 32.7984 145.166 34.2466 142.544 34.2466ZM203.053 10.6067C195.773 10.6067 191.35 14.2074 190.567 20.6262H198.591C198.865 18.3953 200.313 17.2211 202.857 17.2211C205.44 17.2211 206.614 18.3953 206.614 20.0783C206.614 21.4873 205.714 22.2309 203.405 22.6614L199.569 23.366C192.838 24.6184 190.254 27.3973 190.254 31.7808C190.254 36.8297 193.816 39.9609 198.708 39.9609C202.74 39.9609 205.323 38.0822 206.536 33.4247H207.045V39.452H214.99V20.9393C214.99 14.5205 211.115 10.6067 203.053 10.6067ZM202.113 34.2466C199.843 34.2466 198.552 33.0333 198.552 31.2329C198.552 29.7456 199.452 28.728 201.683 28.2192L203.249 27.8669C204.579 27.5538 205.636 27.1233 206.614 26.3014V29.3151C206.614 32.7984 204.775 34.2466 202.113 34.2466Z" fill="#656C85"/>
<path d="M26.8493 6.81019C25.1272 6.81019 23.9139 7.55383 22.7789 9.19766L19.4912 13.8943V0.50882H11.7025V13.8943L8.41487 9.19766C7.27984 7.55383 6.06654 6.81019 4.34442 6.81019C1.76125 6.81019 0 8.72799 0 11.1155C0 13.1507 0.939337 14.4814 2.97456 15.773L15.6164 23.9139L28.2583 15.773C30.2544 14.4814 31.2329 13.1507 31.2329 11.1155C31.1546 8.72799 29.4325 6.81019 26.8493 6.81019Z" fill="#656C85"/>
<path d="M15.5773 25.8317C23.092 25.8317 29.2368 31.4286 29.2368 39.4912H1.91779C1.91779 31.4286 8.0626 25.8317 15.5773 25.8317Z" fill="#656C85"/>
</svg>
