<svg width="115" height="40" viewBox="0 0 115 40" fill="none" xmlns="http://www.w3.org/2000/svg">
<path d="M34.2026 9.32289L18.4891 0.235031C17.9966 -0.0783436 17.1461 -0.0783436 16.6536 0.235031L0.940123 9.32289C0.447678 9.59149 0 10.3078 0 10.9345V29.0655C0 29.6475 0.40291 30.3637 0.940123 30.6771L16.6536 39.765C17.1461 40.0783 17.9966 40.0783 18.4891 39.765L34.2026 30.6771C34.695 30.4085 35.1427 29.6475 35.1427 29.0655V10.9345C35.0979 10.3078 34.695 9.59149 34.2026 9.32289ZM29.6363 12.0985L31.427 11.0688C31.7851 10.845 32.2328 10.9793 32.4566 11.3374C32.6805 11.6956 32.5462 12.1433 32.188 12.3671L30.3973 13.3968C30.263 13.4863 30.1735 13.4863 30.0392 13.4863C29.7706 13.4863 29.5467 13.352 29.4124 13.1281C29.1438 12.77 29.2781 12.3223 29.6363 12.0985ZM18.5339 22.8428C18.7577 23.2009 18.6234 23.6486 18.2653 23.8724L13.296 26.7375C13.1617 26.7823 13.0722 26.8271 12.9379 26.8271C12.6693 26.8271 12.4454 26.6928 12.3111 26.4689C12.0873 26.1108 12.2216 25.6631 12.5797 25.4393L17.549 22.5741C17.9071 22.3503 18.3548 22.4846 18.5339 22.8428ZM15.7583 14.9636L13.5199 16.2619C13.3856 16.3514 13.296 16.3514 13.1617 16.3514C12.8931 16.3514 12.6693 16.2171 12.535 15.9933C12.3111 15.6351 12.4454 15.1875 12.8036 14.9636L15.042 13.6654C15.4001 13.4415 15.8478 13.5758 16.0716 13.934C16.2059 14.3369 16.1164 14.7846 15.7583 14.9636ZM16.1164 16.3962C16.4745 16.1724 16.9222 16.3067 17.1461 16.6648C17.3699 17.0229 17.2356 17.4706 16.8774 17.6945L16.0269 18.1869C15.8926 18.2764 15.803 18.2764 15.6687 18.2764C15.4001 18.2764 15.1763 18.1421 15.042 17.9183C14.8181 17.5602 14.9524 17.1125 15.3106 16.8886L16.1164 16.3962ZM13.9228 21.1863C14.2809 21.0073 14.7286 21.0968 14.9077 21.455C15.1315 21.8131 14.9972 22.2608 14.6391 22.4846L13.296 23.2904C13.1617 23.38 13.0722 23.38 12.9379 23.38C12.6693 23.38 12.4454 23.2457 12.3111 23.0218C12.0873 22.6637 12.2216 22.216 12.5797 21.9922L13.9228 21.1863ZM13.878 4.04029L17.1461 2.16004C17.5042 1.93621 17.9519 2.07051 18.1757 2.42865C18.3996 2.78679 18.2652 3.23447 17.9071 3.45831L14.6391 5.33856C14.5048 5.42809 14.4152 5.42809 14.2809 5.42809C14.0123 5.42809 13.7885 5.29379 13.6542 5.06995C13.3856 4.66704 13.5199 4.21936 13.878 4.04029ZM17.0118 7.35311L15.1763 8.42753C15.042 8.51707 14.9524 8.51707 14.8181 8.51707C14.5495 8.51707 14.3257 8.38276 14.1914 8.15892C13.9675 7.80078 14.1018 7.35311 14.46 7.12927L16.2955 6.05484C16.6536 5.831 17.1013 5.9653 17.3251 6.32345C17.4594 6.72636 17.3699 7.17403 17.0118 7.35311ZM2.68607 10.5316L9.5803 6.54729C9.93844 6.32345 10.3861 6.45775 10.61 6.81589C10.8338 7.17403 10.6995 7.62171 10.3414 7.84555L3.40235 11.8299C3.26805 11.8746 3.17851 11.9194 3.04421 11.9194C2.7756 11.9194 2.55176 11.7851 2.41746 11.5613C2.19362 11.2031 2.32792 10.7555 2.68607 10.5316ZM3.04421 15.3665C2.7756 15.3665 2.55176 15.2322 2.41746 15.0084C2.19362 14.6503 2.32792 14.2026 2.68607 13.9787L12.1768 8.4723C12.535 8.24846 12.9827 8.38276 13.2065 8.74091C13.4303 9.09905 13.296 9.54673 12.9379 9.77056L3.40235 15.2322C3.31281 15.3218 3.17851 15.3665 3.04421 15.3665ZM4.38724 18.0078C4.11863 18.0078 3.8948 17.8735 3.76049 17.6497C3.53665 17.2915 3.67096 16.8439 4.0291 16.62L17.2356 9.00951C17.5937 8.78567 18.0414 8.91998 18.2653 9.27812C18.4891 9.63626 18.3548 10.0839 17.9966 10.3078L4.79015 17.9183C4.65585 17.9631 4.52154 18.0078 4.38724 18.0078ZM6.08842 20.4701C5.81981 20.4701 5.59597 20.3358 5.46167 20.1119C5.23783 19.7538 5.37213 19.3061 5.73027 19.0823L9.5803 16.8439C9.93844 16.62 10.3861 16.7543 10.61 17.1125C10.8338 17.4706 10.6995 17.9183 10.3414 18.1421L6.49133 20.3805C6.35702 20.4253 6.22272 20.4701 6.08842 20.4701ZM9.53553 21.9026C9.26693 21.9026 9.04309 21.7683 8.90879 21.5445C8.68495 21.1863 8.81925 20.7387 9.17739 20.5148L11.7292 19.0375C12.0873 18.8137 12.535 18.948 12.7588 19.3061C12.9827 19.6642 12.8483 20.1119 12.4902 20.3358L9.93844 21.8131C9.80414 21.8579 9.66984 21.9026 9.53553 21.9026ZM15.0867 36.0045C14.9524 36.094 14.8629 36.094 14.7286 36.094C14.46 36.094 14.2361 35.9597 14.1018 35.7359C13.878 35.3777 14.0123 34.9301 14.3705 34.7062L18.1757 32.5126C18.5339 32.2888 18.9815 32.4231 19.2054 32.7812C19.4292 33.1393 19.2949 33.587 18.9368 33.8109L15.0867 36.0045ZM19.9217 36.6312L17.8623 37.84C17.728 37.8847 17.6385 37.9295 17.5042 37.9295C17.2356 37.9295 17.0118 37.7952 16.8774 37.5713C16.6536 37.2132 16.7879 36.7655 17.1461 36.5417L19.2054 35.333C19.5635 35.1539 20.0112 35.2434 20.235 35.6016C20.4141 35.9597 20.2798 36.4522 19.9217 36.6312ZM20.3246 29.5132L14.6391 32.826C14.5048 32.9155 14.3705 32.9155 14.2809 32.9155C14.0123 32.9155 13.7885 32.7812 13.6542 32.5574C13.4303 32.1992 13.5646 31.7515 13.9228 31.5277L19.6083 28.2149C19.9664 27.991 20.4141 28.1253 20.6379 28.4835C20.817 28.8416 20.6827 29.2893 20.3246 29.5132ZM21.7571 25.2602L11.953 30.9457C11.8187 31.0353 11.7292 31.0353 11.5949 31.0353C11.3262 31.0353 11.1024 30.901 10.9681 30.6771C10.7443 30.319 10.8786 29.8713 11.2367 29.6475L21.0856 23.9619C21.4438 23.7381 21.8914 23.8724 22.1153 24.2306C22.2496 24.5887 22.1153 25.0364 21.7571 25.2602ZM33.0834 25.3497L32.3671 25.7527C32.2328 25.8422 32.1433 25.8422 32.009 25.8422C31.7403 25.8422 31.5165 25.7079 31.3822 25.4841C31.1584 25.1259 31.2927 24.6782 31.6508 24.4544L32.3671 24.0515C32.7252 23.8276 33.1729 23.9619 33.3968 24.3201C33.5758 24.6782 33.4415 25.1259 33.0834 25.3497ZM33.1729 22.0817L31.7851 22.8875C31.6508 22.9771 31.5613 22.9771 31.427 22.9771C31.1584 22.9771 30.9345 22.8428 30.8002 22.6189C30.5764 22.2608 30.7107 21.8131 31.0688 21.5893L32.4566 20.7834C32.8148 20.5596 33.2625 20.6939 33.4863 21.052C33.6654 21.4102 33.5311 21.9026 33.1729 22.0817ZM33.1729 18.6346L30.8898 19.9328C30.7555 20.0224 30.6659 20.0224 30.5316 20.0224C30.263 20.0224 30.0392 19.8881 29.9049 19.6642C29.681 19.3061 29.8153 18.8584 30.1735 18.6346L32.4566 17.3363C32.8148 17.1125 33.2625 17.2468 33.4863 17.6049C33.6654 18.0078 33.5311 18.4555 33.1729 18.6346ZM33.1729 15.1875L28.2932 18.0078C28.1589 18.0526 28.0694 18.0974 27.9351 18.0974C27.6665 18.0974 27.4426 17.9631 27.3083 17.7392C27.0845 17.3811 27.2188 16.9334 27.5769 16.7096L32.4566 13.8892C32.8148 13.6654 33.2625 13.7997 33.4863 14.1578C33.6654 14.5607 33.5311 15.0084 33.1729 15.1875Z" fill="#656C85"/>
<path d="M49.1998 12.188C46.5585 12.188 44.4992 13.4863 44.4992 16.9334V21.5445C44.4992 24.9916 46.5585 26.2898 49.1998 26.2898C51.8411 26.2898 53.9004 24.9916 53.9004 21.5445V16.9334C53.9004 13.4863 51.8411 12.188 49.1998 12.188ZM52.0649 21.5445C52.0649 23.6485 50.9905 24.6334 49.1998 24.6334C47.4091 24.6334 46.3346 23.6485 46.3346 21.5445V16.9334C46.3346 14.8293 47.4091 13.8444 49.1998 13.8444C50.9905 13.8444 52.0649 14.8293 52.0649 16.9334V21.5445Z" fill="#646B81"/>
<path d="M61.7348 15.7247C60.2574 15.7247 59.2725 16.5305 58.8248 17.3811V16.4857C58.8248 16.1276 58.4219 15.859 58.019 15.859C57.4818 15.859 57.1237 16.1276 57.1237 16.4857V25.5288C57.1237 25.8422 57.4818 26.2003 58.019 26.2003C58.5115 26.2003 58.9144 25.887 58.9144 25.5288V19.8881C58.9144 18.2764 60.1231 17.3363 61.2871 17.3363C62.6301 17.3363 63.7941 18.5898 63.7941 19.8881V25.5288C63.7941 25.9765 64.2417 26.2003 64.6894 26.2003C65.1371 26.2003 65.5848 25.9765 65.5848 25.5288V19.8881C65.5848 17.6049 63.8388 15.7247 61.7348 15.7247Z" fill="#646B81"/>
<path d="M81.7012 12.2328C81.2535 12.2328 80.8058 12.4119 80.8058 12.8595V25.5288C80.8058 25.9765 81.2535 26.2003 81.7012 26.2003C82.1489 26.2003 82.6413 25.9765 82.6413 25.5288V12.8595C82.5965 12.4119 82.1489 12.2328 81.7012 12.2328Z" fill="#646B81"/>
<path d="M97.1013 12.188C96.4298 12.188 96.0716 12.5909 95.624 13.352L92.1768 19.9328L88.7745 13.352C88.3716 12.5909 87.9687 12.188 87.2971 12.188C86.8047 12.188 86.4018 12.4118 86.4018 13.0833V25.5288C86.4018 25.9765 86.8495 26.2003 87.2971 26.2003C87.7448 26.2003 88.2373 25.9765 88.2373 25.5288V15.9485L91.5053 22.216C91.6844 22.5741 91.953 22.7084 92.1768 22.7084C92.4454 22.7084 92.714 22.5741 92.8931 22.216L96.2059 16.038V25.5288C96.2059 25.9765 96.6536 26.2003 97.1013 26.2003C97.549 26.2003 98.0414 25.9765 98.0414 25.5288V13.0833C98.0414 12.4118 97.5937 12.188 97.1013 12.188Z" fill="#646B81"/>
<path d="M103.19 15.4561C103.19 13.9787 104.712 13.352 105.921 13.531C107.577 13.8444 107.98 14.695 108.428 14.7845C108.875 14.8741 109.278 14.5607 109.368 14.2473C109.591 13.3967 107.756 11.9642 105.831 11.9642C103.682 11.9642 101.578 12.9491 101.578 15.5456C101.578 20.2462 107.935 18.5003 107.935 22.3951C107.935 24.0067 106.861 24.8125 105.249 24.8125C102.966 24.8125 102.518 23.2457 101.936 23.2457C101.578 23.2457 101.22 23.7381 101.22 24.141C101.22 24.9916 102.832 26.3346 105.339 26.3346C107.801 26.3346 109.591 25.0364 109.591 22.2608C109.591 17.0229 103.19 18.7241 103.19 15.4561Z" fill="#646B81"/>
<path d="M75.2099 21.7236C76.1947 21.7236 77.1349 21.4997 77.1349 19.7538C77.1349 17.4258 75.1651 15.7247 72.9267 15.7247C70.5092 15.7247 68.5842 17.6049 68.5842 19.8433V22.1265C68.5842 24.6782 70.5988 26.3794 73.4191 26.3794C75.5232 26.3794 76.8663 25.3945 76.8663 24.8125C76.8663 24.4992 76.5529 23.9619 76.1052 23.9619C75.568 23.9619 75.1203 24.8125 73.4639 24.8125C71.6732 24.8125 70.3749 23.7829 70.3749 22.1712V21.6788L75.2099 21.7236ZM72.9715 17.1572C74.404 17.1572 75.4785 18.1421 75.4785 19.3956C75.4785 19.9776 75.2994 20.1119 74.5383 20.1119H70.5092V19.5299C70.4645 18.1869 71.5837 17.1572 72.9715 17.1572Z" fill="#646B81"/>
<path d="M112.412 12.9043H112.815C113.039 12.9043 113.262 12.9938 113.262 13.3072C113.262 13.4415 113.173 13.6206 113.039 13.6653L113.352 14.2026H113.128L112.904 13.7549H112.636V14.2026H112.457L112.412 12.9043ZM112.815 13.531C112.994 13.531 113.128 13.4863 113.128 13.3072C113.128 13.1729 113.039 13.0834 112.86 13.0834H112.68V13.531C112.636 13.531 112.815 13.531 112.815 13.531Z" fill="#656C85"/>
<path d="M112.815 14.9188C112.054 14.9188 111.382 14.2921 111.382 13.4863C111.382 12.6805 112.009 12.0537 112.815 12.0537C113.576 12.0537 114.247 12.6805 114.247 13.4863C114.247 14.2921 113.621 14.9188 112.815 14.9188ZM112.815 12.3671C112.188 12.3671 111.651 12.8595 111.651 13.531C111.651 14.2026 112.143 14.695 112.815 14.695C113.486 14.695 113.979 14.2026 113.979 13.531C113.979 12.8595 113.442 12.3671 112.815 12.3671Z" fill="#656C85"/>
</svg>
